<svg viewBox="0 0 445 96" fill="none" xmlns="http://www.w3.org/2000/svg">
<path fill-rule="evenodd" clip-rule="evenodd" d="M213.53 9.50476V36.1945C215.761 34.519 218.533 33.5261 221.538 33.5261C228.909 33.5261 234.884 39.5011 234.884 46.8717C234.884 54.2422 228.909 60.2173 221.538 60.2173C218.533 60.2173 215.761 59.2244 213.53 57.5488V84.2384C215.761 82.5628 218.533 81.5699 221.538 81.5699C228.887 81.5699 234.849 87.5099 234.883 94.8507L439.678 89.3099C442.561 89.222 444.853 86.859 444.853 83.9742V76.4052C444.853 74.3876 443.691 72.5779 442.007 71.4664C434.316 66.3898 429.233 57.6073 429.233 47.6237C429.233 37.6401 434.316 28.8577 442.007 23.7811C443.691 22.6695 444.853 20.8599 444.853 18.8422V8.9729C444.853 6.06635 442.528 3.69391 439.622 3.63574L234.833 0C234.239 6.82147 228.514 12.1732 221.538 12.1732C218.533 12.1732 215.761 11.1803 213.53 9.50476Z" fill="#EEECF8"/>
<path d="M262.882 31.354H252.212C251.748 31.354 251.438 31.6599 251.438 32.1186V66.2678C251.438 66.7265 251.748 67.0323 252.212 67.0323H257.727C258.191 67.0323 258.501 66.7265 258.501 66.2678V54.6469H262.882C271.388 54.6469 275.976 49.8048 275.976 42.975C275.976 36.1961 271.388 31.354 262.882 31.354ZM262.728 48.4287H258.501V37.5213H262.728C266.027 37.5213 269.223 38.8465 269.223 42.975C269.223 47.1544 266.027 48.4287 262.728 48.4287Z" fill="#7367F0"/>
<path d="M300.626 60.8651H288.924V32.1186C288.924 31.6599 288.615 31.354 288.151 31.354H282.635C282.171 31.354 281.862 31.6599 281.862 32.1186V66.2678C281.862 66.7265 282.171 67.0323 282.635 67.0323H300.626C301.09 67.0323 301.399 66.7265 301.399 66.2678V61.6296C301.399 61.1709 301.09 60.8651 300.626 60.8651Z" fill="#7367F0"/>
<path d="M338.168 66.1659L325.641 31.9657C325.487 31.5579 325.074 31.354 324.662 31.354H319.507C319.095 31.354 318.785 31.5579 318.631 31.9657L306.104 66.1659C305.898 66.6756 306.156 67.0323 306.723 67.0323H312.445C312.857 67.0323 313.166 66.8794 313.321 66.4207L315.435 60.2535H328.837L330.951 66.4207C331.106 66.8794 331.415 67.0323 331.827 67.0323H337.549C338.116 67.0323 338.374 66.6756 338.168 66.1659ZM317.394 54.3411L322.136 40.4265L326.879 54.3411H317.394Z" fill="#7367F0"/>
<path d="M368.002 57.8579C367.693 57.5011 367.281 57.5011 366.92 57.807C364.755 59.6928 362.074 60.8651 358.775 60.8651C352.486 60.8651 347.537 55.9211 347.537 49.3461C347.537 42.7201 352.486 37.7761 358.775 37.7761C362.074 37.7761 364.755 38.9484 366.92 40.8343C367.281 41.1401 367.693 41.1401 368.002 40.7833L371.404 37.1645C371.765 36.8077 371.765 36.4509 371.404 36.0942C368.208 32.9341 363.827 30.9463 358.826 30.9463C348.517 30.9463 340.269 39.0504 340.269 49.3461C340.269 59.5909 348.517 67.6949 358.826 67.6949C363.827 67.6949 368.208 65.7071 371.404 62.5471C371.765 62.1903 371.765 61.8335 371.404 61.4767L368.002 57.8579Z" fill="#7367F0"/>
<path d="M397.66 60.8651H384.927V51.7416H396.835C397.299 51.7416 397.608 51.4358 397.608 50.9771V46.3389C397.608 45.8802 397.299 45.5744 396.835 45.5744H384.927V37.5213H397.608C398.072 37.5213 398.382 37.2155 398.382 36.7568V32.1186C398.382 31.6599 398.072 31.354 397.608 31.354H378.638C378.174 31.354 377.865 31.6599 377.865 32.1186V66.2678C377.865 66.7265 378.174 67.0323 378.638 67.0323H397.66C398.124 67.0323 398.433 66.7265 398.433 66.2678V61.6296C398.433 61.1709 398.124 60.8651 397.66 60.8651Z" fill="#7367F0"/>
<path fill-rule="evenodd" clip-rule="evenodd" d="M222.426 12.1343C222.132 12.1537 221.835 12.1635 221.537 12.1635C214.564 12.1635 208.841 6.81689 208.243 0L5.6632 4.86188C2.51376 4.93744 0 7.51227 0 10.6626V19.0822C0 21.2751 1.26669 23.2391 3.08443 24.4658C10.6411 29.5657 15.6191 38.2692 15.6191 48.1491C15.6191 58.029 10.6411 66.7325 3.08443 71.8323C1.26668 73.0591 0 75.0231 0 77.216V84.7446C0 87.8949 2.51375 90.4697 5.66319 90.5453L208.2 95.4062C208.194 95.2402 208.191 95.0734 208.191 94.9059C208.191 87.5354 214.166 81.5604 221.537 81.5604C221.835 81.5604 222.132 81.5702 222.426 81.5895V60.1785C222.132 60.1978 221.835 60.2077 221.537 60.2077C214.166 60.2077 208.191 54.2327 208.191 46.8621C208.191 39.4915 214.166 33.5165 221.537 33.5165C221.835 33.5165 222.132 33.5264 222.426 33.5457V12.1343ZM104.608 57.9509C104.968 57.6417 105.381 57.6417 105.69 58.0025L109.092 61.6619C109.452 62.0227 109.452 62.3835 109.092 62.7443C105.896 65.9399 101.515 67.95 96.5156 67.95C86.2073 67.95 77.9606 59.7549 77.9606 49.3951C77.9606 38.9837 86.2073 30.7886 96.5156 30.7886C101.515 30.7886 105.896 32.7987 109.092 35.9943C109.452 36.355 109.452 36.7159 109.092 37.0766L105.69 40.7361C105.381 41.0969 104.968 41.0969 104.608 40.7876C102.443 38.8806 99.7627 37.6951 96.464 37.6951C90.176 37.6951 85.228 42.6946 85.228 49.3951C85.228 56.0439 90.176 61.0434 96.464 61.0434C99.7627 61.0434 102.443 59.858 104.608 57.9509ZM60.8432 31.2009H38.165C37.7011 31.2009 37.3918 31.5102 37.3918 31.974V36.6643C37.3918 37.1282 37.7011 37.4374 38.165 37.4374H45.9993V66.5068C45.9993 66.9707 46.3085 67.2799 46.7724 67.2799H52.2873C52.7512 67.2799 53.0605 66.9707 53.0605 66.5068V37.4374H60.8432C61.3071 37.4374 61.6163 37.1282 61.6163 36.6643V31.974C61.6163 31.5102 61.3071 31.2009 60.8432 31.2009ZM66.2571 31.974V66.5068C66.2571 66.9707 66.5663 67.2799 67.0302 67.2799H72.5452C73.009 67.2799 73.3183 66.9707 73.3183 66.5068V31.974C73.3183 31.5102 73.009 31.2009 72.5452 31.2009H67.0302C66.5663 31.2009 66.2571 31.5102 66.2571 31.974ZM142.429 66.3522L128.41 46.6118L141.089 32.1287C141.501 31.6648 141.347 31.2009 140.677 31.2009H133.822C133.461 31.2009 133.151 31.304 132.894 31.6133L120.833 45.9418V31.974C120.833 31.5102 120.524 31.2009 120.06 31.2009H114.545C114.081 31.2009 113.772 31.5102 113.772 31.974V66.5068C113.772 66.9707 114.081 67.2799 114.545 67.2799H120.06C120.524 67.2799 120.833 66.9707 120.833 66.5068V55.3223L123.719 51.9721L134.492 66.8161C134.749 67.1769 135.007 67.2799 135.419 67.2799H141.965C142.584 67.2799 142.79 66.8676 142.429 66.3522ZM153.55 61.0434H166.281C166.744 61.0434 167.054 61.3527 167.054 61.8166V66.5068C167.054 66.9707 166.744 67.2799 166.281 67.2799H147.262C146.798 67.2799 146.489 66.9707 146.489 66.5068V31.974C146.489 31.5102 146.798 31.2009 147.262 31.2009H166.229C166.693 31.2009 167.002 31.5102 167.002 31.974V36.6643C167.002 37.1282 166.693 37.4374 166.229 37.4374H153.55V45.581H165.456C165.92 45.581 166.229 45.8902 166.229 46.3541V51.0444C166.229 51.5082 165.92 51.8175 165.456 51.8175H153.55V61.0434ZM194.881 31.2009H172.203C171.739 31.2009 171.43 31.5102 171.43 31.974V36.6643C171.43 37.1282 171.739 37.4374 172.203 37.4374H180.037V66.5068C180.037 66.9707 180.347 67.2799 180.81 67.2799H186.325C186.789 67.2799 187.099 66.9707 187.099 66.5068V37.4374H194.881C195.345 37.4374 195.654 37.1282 195.654 36.6643V31.974C195.654 31.5102 195.345 31.2009 194.881 31.2009Z" fill="#7367F0"/>
</svg>
